<svg xmlns="http://www.w3.org/2000/svg" xmlns:xlink="http://www.w3.org/1999/xlink" width="1080" zoomAndPan="magnify" viewBox="0 0 810 809.999993" height="1080" preserveAspectRatio="xMidYMid meet" version="1.0"><path fill="#ffffff" d="M 404.933594 151.867188 C 265.398438 151.867188 151.867188 265.398438 151.867188 404.933594 C 151.867188 544.46875 265.398438 658.132812 404.933594 658.132812 C 544.46875 658.132812 658.132812 544.46875 658.132812 404.933594 C 658.132812 265.398438 544.46875 151.867188 404.933594 151.867188 Z M 404.933594 607.464844 C 293.277344 607.464844 202.398438 516.585938 202.398438 404.933594 C 202.398438 293.277344 293.277344 202.398438 404.933594 202.398438 C 516.585938 202.398438 607.464844 293.277344 607.464844 404.933594 C 607.464844 516.585938 516.585938 607.464844 404.933594 607.464844 Z M 404.933594 607.464844 " fill-opacity="1" fill-rule="nonzero"/><path fill="#ffffff" d="M 404.933594 101.199219 C 418.875 101.199219 430.265625 89.804688 430.265625 75.867188 L 430.265625 25.332031 C 430.265625 11.394531 419.007812 0 404.933594 0 C 390.859375 0 379.597656 11.394531 379.597656 25.332031 L 379.597656 76 C 379.597656 89.941406 390.992188 101.199219 404.933594 101.199219 Z M 404.933594 101.199219 " fill-opacity="1" fill-rule="nonzero"/><path fill="#ffffff" d="M 218.484375 132.699219 C 223.175781 140.875 231.621094 145.296875 240.464844 145.296875 C 244.757812 145.296875 249.179688 144.226562 253.066406 141.949219 C 265.128906 134.976562 269.285156 119.429688 262.316406 107.367188 L 236.980469 63.535156 C 230.011719 51.472656 214.464844 47.316406 202.398438 54.285156 C 190.335938 61.257812 186.179688 76.804688 193.152344 88.867188 Z M 218.484375 132.699219 " fill-opacity="1" fill-rule="nonzero"/><path fill="#ffffff" d="M 132.699219 218.484375 L 88.867188 193.152344 C 76.804688 186.179688 61.257812 190.335938 54.285156 202.398438 C 47.316406 214.464844 51.472656 230.011719 63.535156 236.980469 L 107.367188 262.316406 C 111.386719 264.59375 115.675781 265.667969 119.964844 265.667969 C 128.679688 265.667969 137.257812 261.109375 141.949219 253.066406 C 148.917969 241.003906 144.761719 225.453125 132.699219 218.484375 Z M 132.699219 218.484375 " fill-opacity="1" fill-rule="nonzero"/><path fill="#ffffff" d="M 101.199219 404.933594 C 101.199219 390.992188 89.804688 379.597656 75.867188 379.597656 L 25.332031 379.597656 C 11.394531 379.597656 0 390.992188 0 404.933594 C 0 418.875 11.394531 430.265625 25.332031 430.265625 L 76 430.265625 C 89.941406 430.265625 101.199219 419.007812 101.199219 404.933594 Z M 101.199219 404.933594 " fill-opacity="1" fill-rule="nonzero"/><path fill="#ffffff" d="M 107.367188 547.550781 L 63.535156 572.882812 C 51.472656 579.855469 47.316406 595.402344 54.285156 607.464844 C 58.976562 615.644531 67.421875 620.066406 76.269531 620.066406 C 80.558594 620.066406 84.980469 618.992188 88.867188 616.714844 L 132.699219 591.382812 C 144.761719 584.410156 148.917969 568.863281 141.949219 556.800781 C 134.976562 544.734375 119.429688 540.582031 107.367188 547.550781 Z M 107.367188 547.550781 " fill-opacity="1" fill-rule="nonzero"/><path fill="#ffffff" d="M 253.066406 668.050781 C 241.003906 661.082031 225.453125 665.238281 218.484375 677.300781 L 193.285156 721.132812 C 186.316406 733.195312 190.46875 748.742188 202.535156 755.714844 C 206.554688 757.992188 210.84375 759.066406 215.132812 759.066406 C 223.847656 759.066406 232.425781 754.507812 237.117188 746.464844 L 262.449219 702.632812 C 269.417969 690.4375 265.265625 675.023438 253.066406 668.050781 Z M 253.066406 668.050781 " fill-opacity="1" fill-rule="nonzero"/><path fill="#ffffff" d="M 404.933594 708.667969 C 390.992188 708.667969 379.597656 720.058594 379.597656 734 L 379.597656 784.667969 C 379.597656 798.605469 390.992188 810 404.933594 810 C 418.875 810 430.265625 798.605469 430.265625 784.667969 L 430.265625 734 C 430.265625 720.058594 419.007812 708.667969 404.933594 708.667969 Z M 404.933594 708.667969 " fill-opacity="1" fill-rule="nonzero"/><path fill="#ffffff" d="M 591.382812 677.300781 C 584.410156 665.238281 568.863281 661.082031 556.800781 668.050781 C 544.734375 675.023438 540.582031 690.570312 547.550781 702.632812 L 572.882812 746.464844 C 577.574219 754.640625 586.019531 759.066406 594.867188 759.066406 C 599.15625 759.066406 603.578125 757.992188 607.464844 755.714844 C 619.53125 748.742188 623.683594 733.195312 616.714844 721.132812 Z M 591.382812 677.300781 " fill-opacity="1" fill-rule="nonzero"/><path fill="#ffffff" d="M 746.464844 572.882812 L 702.632812 547.550781 C 690.570312 540.582031 675.023438 544.734375 668.050781 556.800781 C 661.082031 568.863281 665.238281 584.410156 677.300781 591.382812 L 721.132812 616.714844 C 725.152344 618.992188 729.441406 620.066406 733.730469 620.066406 C 742.445312 620.066406 751.023438 615.507812 755.714844 607.464844 C 762.683594 595.402344 758.527344 579.855469 746.464844 572.882812 Z M 746.464844 572.882812 " fill-opacity="1" fill-rule="nonzero"/><path fill="#ffffff" d="M 784.667969 379.597656 L 734 379.597656 C 720.058594 379.597656 708.667969 390.992188 708.667969 404.933594 C 708.667969 418.875 720.058594 430.265625 734 430.265625 L 784.667969 430.265625 C 798.605469 430.265625 810 418.875 810 404.933594 C 810 390.992188 798.605469 379.597656 784.667969 379.597656 Z M 784.667969 379.597656 " fill-opacity="1" fill-rule="nonzero"/><path fill="#ffffff" d="M 689.902344 265.800781 C 694.191406 265.800781 698.613281 264.726562 702.5 262.449219 L 746.332031 237.117188 C 758.394531 230.144531 762.550781 214.597656 755.582031 202.535156 C 748.609375 190.46875 733.0625 186.316406 720.996094 193.285156 L 677.300781 218.484375 C 665.238281 225.453125 661.082031 241.003906 668.050781 253.066406 C 672.742188 261.242188 681.1875 265.800781 689.902344 265.800781 Z M 689.902344 265.800781 " fill-opacity="1" fill-rule="nonzero"/><path fill="#ffffff" d="M 556.800781 141.949219 C 560.820312 144.226562 565.109375 145.296875 569.398438 145.296875 C 578.113281 145.296875 586.691406 140.742188 591.382812 132.699219 L 616.714844 88.867188 C 623.683594 76.804688 619.53125 61.257812 607.464844 54.285156 C 595.402344 47.316406 579.855469 51.472656 572.882812 63.535156 L 547.550781 107.367188 C 540.582031 119.429688 544.734375 134.976562 556.800781 141.949219 Z M 556.800781 141.949219 " fill-opacity="1" fill-rule="nonzero"/></svg>